<?xml version="1.0" encoding="UTF-8"?>
<!-- Generator: Adobe Illustrator 24.2.2, SVG Export Plug-In . SVG Version: 6.00 Build 0)  -->
<svg version="1.1" id="Layer_1" xmlns="http://www.w3.org/2000/svg" xmlns:xlink="http://www.w3.org/1999/xlink" x="0px" y="0px" viewBox="0 0 672 330" style="enable-background:new 0 0 672 330;" xml:space="preserve">
<g>
	<path d="M114,149.3c-2,3.7-5.4,5.5-10.1,5.5c-4.7,0-7.8-0.7-9.2-2c-1.5-1.3-2.2-4.8-2.2-10.4c0-5.6,3-18.7,9-39.3   c6-20.6,9-32.4,9-35.6c0-3.2-0.6-4.7-1.8-4.7c-1.8,0-4.2,1.6-6.9,4.7c-2.8,3.2-5.1,6.3-6.9,9.4L92,81.8   c-9.9,16-18.8,32.1-26.9,48.2c-8.1,16.1-14,27.9-17.8,35.4c-3.8,7.5-7,12.2-9.8,14.2c-2.8,2-6.7,3-11.9,3c-5.2,0-7.7-1.2-7.7-3.5   v-0.7c0-1.5,4-8.7,12-21.5c29.6-47,51.8-85.3,66.8-115.1c3.5-7.1,5.3-13.7,5.3-19.9v-2.8c0-2.8,3.2-5,9.6-6.7   c6.4-1.7,11.7-2.5,15.8-2.5h7.6c6.5,0,11.2,1.2,14.3,3.7c1.4,0.9,2.1,2.2,2.1,3.7c0,1.5-3,12.2-9.1,32c-6.1,19.8-9.1,31.7-9.1,35.7   c0,4,0.6,6,1.8,6c3.8,0,10.6-4.7,20.3-14.2c9.7-9.5,20.8-20.8,33.3-34.1c10.2-11.1,19.9-20.6,29.1-28.7c2-1.8,4.4-2.9,7.2-3.2   c6-0.9,12.4-1.4,19.3-1.4c6.9,0,10.3,1.5,10.3,4.6c0,0.6,0,1.1-0.1,1.4c-0.1,0.3-3,5-8.7,14c-5.7,9-12.6,20.2-20.8,33.5   c-8.2,13.3-16.3,27.1-24.5,41.4c-8.2,14.3-15.1,27.8-20.8,40.7c-5.7,12.9-8.5,22.3-8.5,28.3c-1.4,2.6-3.5,3.9-6.5,3.9   c-15.2,0-22.9-2.7-22.9-8.1c0-12.5,15.5-42.4,46.4-89.9c4-6,6-9.8,6-11.3c0-1.5-1.2-2.3-3.5-2.3c-5.9,0-18.2,10.4-37,31.3   C134.9,117.8,121.7,135.3,114,149.3z"/>
	<path d="M259.3,153.2c0-1.1-0.4-1.6-1.2-1.6h-0.5l-3.5,1.6c-10,9.7-18.2,16.4-24.5,20c-6.3,3.6-12.9,5.4-19.6,5.4   c-3.1,0-5.9-0.9-8.3-2.8c-2.5-1.8-3.7-5.4-3.7-10.6c0-5.2,2.7-14.5,8.1-27.7c5.4-13.2,12.1-25.9,20.1-38c8-12.1,15-18.9,21-20.4   c2-0.6,4.7-0.9,8.1-0.9c3.4,0,5.1,0.9,5.1,2.8c0,0.6-2.8,4.9-8.3,12.8c-5.5,7.9-11.1,17-16.5,27.1c-5.5,10.2-8.2,17.8-8.2,22.9   c0,5.1,1.8,7.6,5.3,7.6c6.6,0,14.2-4.3,22.9-12.9c8.6-8.6,19.9-22.3,34-40.9c3.8-5.5,10-8.3,18.5-8.3c4.6,0,6.9,0.9,6.9,2.8   c0,0.5-0.2,1.1-0.7,1.8c-24.2,37.3-38.7,64-43.7,80.2c-0.6,1.8-1.4,2.8-2.3,2.8h-0.7c-6.2,0-9.2-4.9-9.2-14.8L259.3,153.2z"/>
	<path d="M269.9,290.2c6.6,0,17.1-10.7,31.3-32c14.2-21.3,26.9-42.6,38-63.9c11.1-21.3,16.6-33,16.6-35.2c0-2.2-0.6-3.3-1.8-3.3   c-1.2,0-3.3,1.2-6.2,3.6c-2.9,2.4-6,5-9.4,8c-3.3,2.9-7.5,5.6-12.7,8c-5.2,2.4-10.3,3.6-15.4,3.6c-6.3,0-9.5-4.7-9.5-14.1   c0-7.5,2.1-16.1,6.2-25.5c4.2-9.5,9.9-18.6,17.1-27.5c7.2-8.9,16.7-16.3,28.4-22.3c11.7-6,24.3-9,37.7-9c3.4,0,7.1,0.6,11.1,1.8   c8,2.5,12,6.9,12,13.4c0,4.6-1.3,6.9-3.9,6.9c-0.8,0-2.1-0.5-3.9-1.6c-5.5-3.7-14.1-5.5-25.6-5.5c-11.6,0-22.8,5.7-33.6,17.2   c-10.9,11.5-16.3,22.7-16.3,33.6c0,3.9,1.6,5.8,4.9,5.8c4.9,0,11.7-3.5,20.4-10.5c8.7-7,17.4-17.4,26-31.1c0.5-2.2,4-3.2,10.6-3.2   c6.6,0,9.9,1.2,9.9,3.5c0,1.7-5.4,12.7-16.1,33.2c-10.7,20.4-19.8,37.2-27.1,50.4c-7.4,13.2-16.3,27.8-26.7,43.8   c-10.4,16-20.2,29.8-29.5,41.4c-9.2,11.6-18.9,21.3-28.9,29.2c-10,7.9-18.9,11.9-26.8,11.9c-6.5,0-9.7-5.4-9.7-16.2   c0-10.8,3.2-22.8,9.5-35.9c6.3-13.2,13.9-25.3,22.8-36.3c8.9-11,18.3-20.4,28.3-28.1c10-7.7,18.4-11.6,25.2-11.6h0.7   c1.8,0,2.8,0.5,2.8,1.6c0,1.1-0.9,2.1-2.8,3c-5.9,2.9-13.3,9.4-22.3,19.5c-9,10.1-17.2,21.7-24.5,34.8c-7.3,13.1-11,24.1-11,33v0.2   C265.8,288.4,267.1,290.2,269.9,290.2z"/>
	<path d="M481.1,149.3c-2,3.7-5.4,5.5-10.1,5.5c-4.7,0-7.8-0.7-9.2-2c-1.5-1.3-2.2-4.8-2.2-10.4c0-5.6,3-18.7,9-39.3   c6-20.6,9-32.4,9-35.6c0-3.2-0.6-4.7-1.8-4.7c-1.8,0-4.2,1.6-6.9,4.7c-2.8,3.2-5.1,6.3-6.9,9.4l-2.8,4.9   c-9.9,16-18.8,32.1-26.9,48.2c-8.1,16.1-14,27.9-17.8,35.4c-3.8,7.5-7,12.2-9.8,14.2c-2.8,2-6.7,3-11.9,3c-5.2,0-7.7-1.2-7.7-3.5   v-0.7c0-1.5,4-8.7,12-21.5c29.6-47,51.8-85.3,66.8-115.1c3.5-7.1,5.3-13.7,5.3-19.9v-2.8c0-2.8,3.2-5,9.6-6.7   c6.4-1.7,11.7-2.5,15.8-2.5h7.6c6.5,0,11.2,1.2,14.3,3.7c1.4,0.9,2.1,2.2,2.1,3.7c0,1.5-3,12.2-9.1,32c-6.1,19.8-9.1,31.7-9.1,35.7   c0,4,0.6,6,1.8,6c3.8,0,10.6-4.7,20.3-14.2c9.7-9.5,20.8-20.8,33.3-34.1c10.2-11.1,19.9-20.6,29.1-28.7c2-1.8,4.4-2.9,7.2-3.2   c6-0.9,12.4-1.4,19.3-1.4c6.9,0,10.3,1.5,10.3,4.6c0,0.6,0,1.1-0.1,1.4c-0.1,0.3-3,5-8.7,14c-5.7,9-12.6,20.2-20.8,33.5   c-8.2,13.3-16.3,27.1-24.5,41.4c-8.2,14.3-15.1,27.8-20.8,40.7c-5.7,12.9-8.5,22.3-8.5,28.3c-1.4,2.6-3.5,3.9-6.5,3.9   c-15.2,0-22.9-2.7-22.9-8.1c0-12.5,15.5-42.4,46.4-89.9c4-6,6-9.8,6-11.3c0-1.5-1.2-2.3-3.5-2.3c-5.9,0-18.2,10.4-37,31.3   C502,117.8,488.8,135.3,481.1,149.3z"/>
	<path d="M591.1,187.2c-8.9,0-15.5-2.7-19.6-8c-4.2-5.3-6.2-11.9-6.2-19.6c0-7.8,1.7-15.9,5.1-24.5c3.4-8.5,8-16.8,14-24.8   c5.9-8,13.7-14.7,23.3-20.2c9.6-5.5,20-8.2,31.1-8.2c5.1,0,8.9,1.6,11.6,4.7c2.6,3.2,3.9,6.9,3.9,11.2c0,8.9-3.2,17.3-9.5,25   c-6.3,7.7-13.3,13.6-21,17.6c-7.7,4-14.5,6.3-20.4,6.8c-5.9,0.5-9.9,1.7-11.9,3.3c-2,1.7-3,5.1-3,10.2c0,5.1,1.2,8.9,3.5,11.6   c2.3,2.6,4.6,4.4,6.9,5.3c2.3,0.9,3.5,1.8,3.5,2.8c0,2.2-1.2,3.8-3.5,5.1C596.4,186.6,593.9,187.2,591.1,187.2z M631.7,103.5   c0-4.8-2.2-7.2-6.5-7.2c-6.2,0-13,4.3-20.4,12.9c-7.5,8.6-11.2,16.4-11.2,23.3c0,1.7,1.3,2.5,3.9,2.5c6.3,0,13.6-3.2,21.8-9.7   C627.6,119,631.7,111.7,631.7,103.5z"/>
</g>
<rect x="755.1" y="713.4" style="fill:none;" width="2.2" height="0"/>
</svg>